<?xml version="1.0" standalone="no"?>
<!DOCTYPE svg PUBLIC "-//W3C//DTD SVG 20010904//EN"
 "http://www.w3.org/TR/2001/REC-SVG-20010904/DTD/svg10.dtd">
<svg version="1.0" xmlns="http://www.w3.org/2000/svg"
 width="500.000000pt" height="500.000000pt" viewBox="0 0 500.000000 500.000000"
 preserveAspectRatio="xMidYMid meet">

<g transform="translate(0.000000,500.000000) scale(0.100000,-0.100000)"
fill="#000000" stroke="none">
<path d="M2755 4380 c-201 -27 -480 -141 -589 -241 -149 -136 -231 -316 -243
-534 -19 -359 214 -616 606 -666 109 -14 176 -4 297 45 82 33 231 123 221 133
-3 3 -21 0 -39 -6 -132 -43 -350 -52 -472 -21 -281 72 -436 282 -436 589 1
203 58 361 170 465 67 61 174 118 258 135 68 14 231 14 307 0 59 -11 135 -43
135 -57 0 -4 4 -13 9 -20 10 -17 55 4 119 55 49 40 53 67 15 87 -62 31 -252
50 -358 36z"/>
<path d="M785 2862 c14 -15 40 -19 43 -7 1 6 -10 11 -25 13 -19 2 -25 0 -18
-6z"/>
<path d="M963 2860 c-31 -12 -29 -18 3 -12 72 13 120 -78 77 -146 -17 -26 -17
-27 1 -12 56 44 52 136 -8 164 -38 18 -42 18 -73 6z"/>
<path d="M1156 2860 c-10 -29 -11 -200 -1 -200 6 0 9 27 8 65 -1 36 2 65 5 65
3 0 32 -28 64 -62 32 -33 62 -58 66 -54 8 9 20 196 12 196 -3 0 -12 -5 -20
-10 -10 -6 -11 -10 -2 -10 8 0 12 -21 12 -70 0 -38 -4 -70 -9 -70 -14 0 -103
102 -117 135 -9 21 -14 26 -18 15z"/>
<path d="M1435 2863 l-50 -4 3 -99 c3 -95 4 -100 25 -99 12 0 17 2 12 5 -6 2
-9 24 -7 48 4 42 6 45 35 49 l32 4 -32 1 c-31 2 -33 4 -33 42 0 39 1 40 35 40
19 0 35 5 35 10 0 6 -1 9 -2 8 -2 -1 -25 -3 -53 -5z"/>
<path d="M1560 2868 c0 -2 -2 -49 -3 -106 -2 -85 0 -102 13 -102 12 0 15 18
15 105 0 77 -3 105 -12 105 -7 0 -13 -1 -13 -2z"/>
<path d="M1700 2861 l-35 -6 0 -98 0 -97 35 1 c19 0 44 4 55 9 15 6 10 8 -20
7 l-40 -2 0 88 -1 87 36 0 c19 0 42 -6 51 -13 43 -33 48 -98 11 -141 -16 -20
-16 -20 3 -6 35 26 44 44 45 86 0 66 -53 99 -140 85z"/>
<path d="M2220 2860 c-10 -6 -11 -10 -2 -10 13 0 16 -42 5 -103 l-6 -38 -48
47 c-26 26 -53 60 -60 76 -19 46 -29 32 -29 -41 0 -38 -3 -83 -6 -100 -6 -26
-4 -31 12 -30 11 0 15 2 9 5 -6 2 -9 32 -7 68 l4 65 63 -67 c35 -37 67 -63 72
-59 9 9 21 197 13 197 -3 0 -12 -5 -20 -10z"/>
<path d="M2395 2860 c-17 -7 -15 -8 11 -7 17 0 36 -3 43 -7 6 -4 16 -4 22 0 8
4 7 9 -2 15 -17 11 -47 10 -74 -1z"/>
<path d="M2890 2861 c0 -10 47 -21 54 -13 3 3 3 9 0 13 -7 12 -54 12 -54 0z"/>
<path d="M3075 2860 c-18 -8 -17 -9 7 -9 15 -1 39 -11 54 -24 21 -18 27 -32
27 -65 0 -53 -24 -82 -67 -82 -76 1 -111 92 -58 154 12 15 9 14 -10 -3 -66
-58 -35 -171 46 -171 35 0 91 35 105 68 35 76 -33 161 -104 132z"/>
<path d="M3260 2868 c0 -2 -2 -49 -3 -106 l-2 -102 40 0 c22 0 47 5 55 10 11
7 3 10 -28 10 l-43 0 3 95 c2 71 0 95 -9 95 -7 0 -13 -1 -13 -2z"/>
<path d="M3420 2868 c0 -2 -2 -49 -3 -106 l-2 -102 40 0 c22 0 47 5 55 10 11
7 3 10 -28 10 l-43 0 3 95 c2 71 0 95 -9 95 -7 0 -13 -1 -13 -2z"/>
<path d="M3620 2860 l-45 -5 0 -98 0 -97 45 2 c37 1 39 2 13 5 -32 4 -33 6
-33 49 0 40 2 44 24 44 14 0 28 5 31 10 4 6 3 10 -2 9 -40 -7 -53 2 -53 35 0
34 1 35 43 38 23 2 38 5 32 8 -5 3 -30 3 -55 0z"/>
<path d="M3825 2860 c-19 -8 -8 -10 60 -10 3 0 5 3 5 8 1 11 -42 12 -65 2z"/>
<path d="M3934 2858 c-3 -5 11 -8 31 -8 l37 0 -4 -95 c-3 -86 -1 -95 15 -95
14 0 17 5 12 21 -4 12 -4 55 0 95 l7 74 33 0 c19 0 37 4 40 10 4 6 -26 9 -80
7 -48 -1 -89 -5 -91 -9z"/>
<path d="M4160 2868 c-1 -2 -2 -49 -3 -106 -2 -85 0 -102 13 -102 12 0 15 20
17 105 3 88 0 105 -12 105 -8 0 -15 -1 -15 -2z"/>
<path d="M4323 2855 c-38 -16 -73 -68 -73 -107 0 -39 45 -88 81 -88 67 0 119
49 119 112 0 70 -63 112 -127 83z m78 -34 c53 -53 25 -141 -45 -141 -70 0
-107 99 -56 150 29 29 66 25 101 -9z"/>
<path d="M4657 2864 c-3 -3 -1 -14 5 -23 7 -11 8 -39 3 -77 l-7 -59 -59 63
c-32 34 -59 69 -59 77 0 8 -4 15 -10 15 -6 0 -10 -30 -10 -69 0 -38 -3 -83 -6
-100 -6 -26 -4 -31 12 -30 11 0 15 2 9 5 -6 2 -9 32 -7 68 l4 64 63 -66 c35
-37 67 -63 72 -59 13 13 20 197 7 197 -6 0 -13 -3 -17 -6z"/>
<path d="M1905 2760 l0 -100 45 2 c39 1 40 2 11 5 -31 4 -33 6 -27 35 3 17 6
37 6 44 0 8 10 14 24 14 14 0 28 5 32 11 5 8 -3 10 -25 7 -30 -4 -31 -3 -31
33 0 36 1 38 38 42 29 3 25 4 -18 5 l-55 2 0 -100z"/>
<path d="M2528 2760 l3 -100 42 2 c33 1 35 2 12 5 -29 4 -30 6 -27 48 4 39 7
45 27 45 13 0 27 5 31 12 5 8 -2 9 -24 5 -32 -6 -32 -6 -32 33 0 36 2 39 33
43 23 3 18 4 -18 5 l-50 2 3 -100z"/>
<path d="M2806 2819 c-36 -43 -35 -91 3 -130 31 -30 80 -39 111 -19 11 7 5 10
-25 10 -48 1 -71 17 -86 59 -9 26 -8 38 9 71 11 22 18 40 17 40 -2 0 -15 -14
-29 -31z"/>
<path d="M3769 2837 c-34 -26 -49 -88 -33 -132 14 -35 99 -58 134 -35 11 7 4
10 -26 10 -53 0 -83 24 -91 73 -4 30 -1 45 16 68 24 32 24 34 0 16z"/>
<path d="M690 2808 c-28 -47 -26 -84 9 -119 31 -30 80 -39 111 -19 11 7 6 10
-21 10 -54 0 -89 32 -89 81 0 22 5 49 10 60 18 32 1 21 -20 -13z"/>
<path d="M908 2818 c-25 -39 -30 -76 -13 -108 24 -46 78 -65 115 -39 13 9 13
10 0 8 -35 -3 -52 2 -75 26 -27 26 -34 80 -15 116 15 26 6 24 -12 -3z"/>
<path d="M2320 2808 c-28 -47 -26 -84 9 -119 31 -30 80 -39 111 -19 11 7 6 10
-21 10 -54 0 -89 32 -89 81 0 22 5 49 10 60 18 32 1 21 -20 -13z"/>
<path d="M2345 2566 c-33 -8 -90 -26 -125 -41 -70 -29 -200 -106 -220 -130
-11 -13 -8 -13 31 0 129 46 357 58 483 25 279 -71 436 -283 436 -586 0 -133
-20 -229 -70 -330 -66 -135 -191 -233 -342 -269 -74 -17 -240 -19 -323 -4 -59
11 -135 43 -135 57 0 4 -4 13 -9 20 -7 11 -14 11 -42 -3 -56 -29 -119 -85
-119 -106 0 -32 74 -58 198 -71 93 -9 125 -8 208 6 120 20 306 81 420 138 181
89 314 260 370 473 25 97 25 297 0 380 -77 257 -312 426 -621 448 -51 4 -101
1 -140 -7z"/>
</g>
</svg>
